{"title":"Batman v Superman Dawn of Justice (UE) PROPER 720p WEB-DL","uid":15134785,"size":2380212594,"categoryP":"video","categoryS":"hd___movies","magnet":"?xt=urn:btih:e0480297e4b701ba26e35c776de53740516509a7&amp;dn=Batman+v+Superman+Dawn+of+Justice+%28UE%29+PROPER+720p+WEB-DL&amp;tr=udp%3A%2F%2Ftracker.leechers-paradise.org%3A6969&amp;tr=udp%3A%2F%2Fzer0day.ch%3A1337&amp;tr=udp%3A%2F%2Fopen.demonii.com%3A1337&amp;tr=udp%3A%2F%2Ftracker.coppersurfer.tk%3A6969&amp;tr=udp%3A%2F%2Fexodus.desync.com%3A6969","seeders":3,"leechers":0,"uploader":"TheRival","files":1,"time":1467171445,"description":"Screens: \nhttp://extraimago.com/image/aDH9 \nhttp://extraimago.com/image/aDHM \nhttp://extraimago.com/image/aDHU\r\n\r\nVideo\r\nID : 1\r\nFormat : AVC\r\nFormat/Info : Advanced Video Codec\r\nFormat profile :   \r\nFormat settings, CABAC : Yes\r\nFormat settings, ReFrames : 2 frames\r\nFormat settings, GOP : M=1, N=24\r\nCodec ID : avc1\r\nCodec ID/Info : Advanced Video Coding\r\nDuration : 3h 2mn\r\nBit rate mode : Variable\r\nBit rate : 1 608 Kbps\r\nMaximum bit rate : 2 449 Kbps\r\nWidth : 1 280 pixels\r\nHeight : 532 pixels\r\nDisplay aspect ratio : 2.40:1\r\nFrame rate mode : Constant\r\nFrame rate : 23.976 (24000/1001) fps\r\nColor space : YUV\r\nChroma subsampling : 4:2:0\r\nBit depth : 8 bits\r\nScan type : Progressive\r\nBits/(Pixel*Frame) : 0.098\r\nStream size : 2.05 GiB (92%)\r\nEncoded date : UTC 2016-06-29 00:56:46\r\nTagged date : UTC 2016-06-29 01:13:28\r\nColor primaries : BT.709\r\nTransfer characteristics : BT.709\r\nMatrix coefficients : BT.709\r\nMenus : 3\r\n\r\nAudio\r\nID : 2\r\nFormat : AAC\r\nFormat/Info : Advanced Audio Codec\r\nFormat profile : LC\r\nCodec ID : 40\r\nDuration : 3h 2mn\r\nBit rate mode : Variable\r\nBit rate : 128 Kbps\r\nMaximum bit rate : 158 Kbps\r\nChannel(s) : 2 channels\r\nChannel positions : Front: L R\r\nSampling rate : 48.0 KHz\r\nFrame rate : 46.875 fps (1024 spf)\r\nCompression mode : Lossy\r\nStream size : 167 MiB (7%)\r\nTitle : English (aac 2.0)\r\nLanguage : English\r\nDefault : Yes\r\nAlternate group : 1","torrent":{"xt":"urn:btih:e0480297e4b701ba26e35c776de53740516509a7","amp;dn":"Batman+v+Superman+Dawn+of+Justice+%28UE%29+PROPER+720p+WEB-DL","amp;tr":["udp%3A%2F%2Ftracker.leechers-paradise.org%3A6969","udp%3A%2F%2Fzer0day.ch%3A1337","udp%3A%2F%2Fopen.demonii.com%3A1337","udp%3A%2F%2Ftracker.coppersurfer.tk%3A6969","udp%3A%2F%2Fexodus.desync.com%3A6969"],"infoHash":"e0480297e4b701ba26e35c776de53740516509a7","infoHashBuffer":{"type":"Buffer","data":[224,72,2,151,228,183,1,186,38,227,92,119,109,229,55,64,81,101,9,167]},"announce":[],"urlList":[]}}